#N canvas 98 157 1049 669 10;
#X obj 350 29 unpack;
#X obj 350 49 mtof;
#X obj 350 69 sig~;
#X obj 350 91 *~;
#X obj 405 45 loadbang;
#X obj 406 66 varalea~ 1000 0.99 1.01;
#X obj 438 182 r adsr_ctrl;
#X obj 438 203 unpack f f f f;
#X obj 405 222 adsr~ 10 250 0.3 500;
#X obj 379 222 *~;
#X obj 387 271 outlet~;
#N canvas 600 355 495 447 modulationDeFrequence_3_oscils 0;
#X obj 14 350 +~;
#X obj 14 372 osc~;
#X obj 14 394 outlet~;
#X text 49 372 porteuse;
#X obj 6 7 inlet~ porteuse;
#X obj 183 42 inlet~ index1;
#X obj 118 35 *~;
#X obj 166 64 *~;
#X obj 119 90 *~;
#X obj 136 7 inlet~ ratio;
#X obj 101 114 +~;
#X text 80 65 mod 1;
#X text 62 143 mod 2;
#X obj 169 141 *~;
#X obj 102 166 *~;
#X obj 188 118 inlet~ index2;
#X obj 102 141 osc~;
#X obj 119 64 osc~;
#X obj 133 195 +~;
#X obj 201 222 *~;
#X obj 88 244 *~;
#X obj 134 222 osc~;
#X obj 78 282 +~;
#X obj 146 309 *~;
#X obj 79 334 *~;
#X obj 79 309 osc~;
#X obj 220 199 inlet~ index3;
#X obj 237 288 inlet~ index4;
#X text 94 223 mod 3;
#X text 39 311 mod 4;
#X connect 0 0 1 0;
#X connect 1 0 2 0;
#X connect 4 0 0 0;
#X connect 4 0 10 0;
#X connect 4 0 6 0;
#X connect 4 0 18 0;
#X connect 4 0 22 0;
#X connect 5 0 7 1;
#X connect 6 0 7 0;
#X connect 6 0 17 0;
#X connect 7 0 8 1;
#X connect 8 0 10 1;
#X connect 9 0 6 1;
#X connect 10 0 13 0;
#X connect 10 0 16 0;
#X connect 13 0 14 1;
#X connect 14 0 18 1;
#X connect 15 0 13 1;
#X connect 16 0 14 0;
#X connect 17 0 8 0;
#X connect 18 0 19 0;
#X connect 18 0 21 0;
#X connect 19 0 20 1;
#X connect 20 0 22 1;
#X connect 21 0 20 0;
#X connect 22 0 23 0;
#X connect 22 0 25 0;
#X connect 23 0 24 1;
#X connect 24 0 0 1;
#X connect 25 0 24 0;
#X connect 26 0 19 1;
#X connect 27 0 23 1;
#X restore 335 155 pd modulationDeFrequence_3_oscils;
#X floatatom 374 108 5 0 0 0 - - -, f 5;
#X floatatom 430 109 5 0 0 0 - - -, f 5;
#X floatatom 488 110 5 0 0 0 - - -, f 5;
#X floatatom 549 106 5 0 0 0 - - -, f 5;
#X obj 370 127 sig~ 0.04;
#X obj 429 127 sig~ 0.35;
#X obj 488 129 sig~ 0.58;
#X obj 697 84 unpack;
#X obj 697 104 mtof;
#X obj 697 124 sig~;
#X obj 697 146 *~;
#X obj 752 102 loadbang;
#X obj 753 123 varalea~ 1000 0.99 1.01;
#X obj 785 237 r adsr_ctrl;
#X obj 785 258 unpack f f f f;
#X obj 752 277 adsr~ 10 250 0.3 500;
#X obj 726 277 *~;
#N canvas 600 355 495 447 modulationDeFrequence_3_oscils 0;
#X obj 14 350 +~;
#X obj 14 372 osc~;
#X obj 14 394 outlet~;
#X text 49 372 porteuse;
#X obj 6 7 inlet~ porteuse;
#X obj 183 42 inlet~ index1;
#X obj 118 35 *~;
#X obj 166 64 *~;
#X obj 119 90 *~;
#X obj 136 7 inlet~ ratio;
#X obj 101 114 +~;
#X text 80 65 mod 1;
#X text 62 143 mod 2;
#X obj 169 141 *~;
#X obj 102 166 *~;
#X obj 188 118 inlet~ index2;
#X obj 102 141 osc~;
#X obj 119 64 osc~;
#X obj 133 195 +~;
#X obj 201 222 *~;
#X obj 88 244 *~;
#X obj 134 222 osc~;
#X obj 78 282 +~;
#X obj 146 309 *~;
#X obj 79 334 *~;
#X obj 79 309 osc~;
#X obj 220 199 inlet~ index3;
#X obj 237 288 inlet~ index4;
#X text 94 223 mod 3;
#X text 39 311 mod 4;
#X connect 0 0 1 0;
#X connect 1 0 2 0;
#X connect 4 0 0 0;
#X connect 4 0 10 0;
#X connect 4 0 6 0;
#X connect 4 0 18 0;
#X connect 4 0 22 0;
#X connect 5 0 7 1;
#X connect 6 0 7 0;
#X connect 6 0 17 0;
#X connect 7 0 8 1;
#X connect 8 0 10 1;
#X connect 9 0 6 1;
#X connect 10 0 13 0;
#X connect 10 0 16 0;
#X connect 13 0 14 1;
#X connect 14 0 18 1;
#X connect 15 0 13 1;
#X connect 16 0 14 0;
#X connect 17 0 8 0;
#X connect 18 0 19 0;
#X connect 18 0 21 0;
#X connect 19 0 20 1;
#X connect 20 0 22 1;
#X connect 21 0 20 0;
#X connect 22 0 23 0;
#X connect 22 0 25 0;
#X connect 23 0 24 1;
#X connect 24 0 0 1;
#X connect 25 0 24 0;
#X connect 26 0 19 1;
#X connect 27 0 23 1;
#X restore 682 210 pd modulationDeFrequence_3_oscils;
#X floatatom 721 163 5 0 0 0 - - -, f 5;
#X floatatom 777 164 5 0 0 0 - - -, f 5;
#X floatatom 835 165 5 0 0 0 - - -, f 5;
#X floatatom 896 161 5 0 0 0 - - -, f 5;
#X obj 717 182 sig~ 0.04;
#X obj 776 182 sig~ 0.35;
#X obj 835 184 sig~ 0.58;
#X obj 103 303 unpack;
#X obj 103 323 mtof;
#X obj 103 343 sig~;
#X obj 103 365 *~;
#X obj 158 319 loadbang;
#X obj 159 340 varalea~ 1000 0.99 1.01;
#X obj 193 478 r adsr_ctrl;
#X obj 193 499 unpack f f f f;
#X obj 160 518 adsr~ 10 250 0.3 500;
#X obj 99 507 *~;
#N canvas 600 355 495 447 modulationDeFrequence_3_oscils 0;
#X obj 14 350 +~;
#X obj 14 372 osc~;
#X obj 14 394 outlet~;
#X text 49 372 porteuse;
#X obj 6 7 inlet~ porteuse;
#X obj 183 42 inlet~ index1;
#X obj 118 35 *~;
#X obj 166 64 *~;
#X obj 119 90 *~;
#X obj 136 7 inlet~ ratio;
#X obj 101 114 +~;
#X text 80 65 mod 1;
#X text 62 143 mod 2;
#X obj 169 141 *~;
#X obj 102 166 *~;
#X obj 188 118 inlet~ index2;
#X obj 102 141 osc~;
#X obj 119 64 osc~;
#X obj 133 195 +~;
#X obj 201 222 *~;
#X obj 88 244 *~;
#X obj 134 222 osc~;
#X obj 78 282 +~;
#X obj 146 309 *~;
#X obj 79 334 *~;
#X obj 79 309 osc~;
#X obj 220 199 inlet~ index3;
#X obj 237 288 inlet~ index4;
#X text 94 223 mod 3;
#X text 39 311 mod 4;
#X connect 0 0 1 0;
#X connect 1 0 2 0;
#X connect 4 0 0 0;
#X connect 4 0 10 0;
#X connect 4 0 6 0;
#X connect 4 0 18 0;
#X connect 4 0 22 0;
#X connect 5 0 7 1;
#X connect 6 0 7 0;
#X connect 6 0 17 0;
#X connect 7 0 8 1;
#X connect 8 0 10 1;
#X connect 9 0 6 1;
#X connect 10 0 13 0;
#X connect 10 0 16 0;
#X connect 13 0 14 1;
#X connect 14 0 18 1;
#X connect 15 0 13 1;
#X connect 16 0 14 0;
#X connect 17 0 8 0;
#X connect 18 0 19 0;
#X connect 18 0 21 0;
#X connect 19 0 20 1;
#X connect 20 0 22 1;
#X connect 21 0 20 0;
#X connect 22 0 23 0;
#X connect 22 0 25 0;
#X connect 23 0 24 1;
#X connect 24 0 0 1;
#X connect 25 0 24 0;
#X connect 26 0 19 1;
#X connect 27 0 23 1;
#X restore 90 451 pd modulationDeFrequence_3_oscils;
#X floatatom 125 402 5 0 0 0 - - -, f 5;
#X floatatom 185 406 5 0 0 0 - - -, f 5;
#X floatatom 243 406 5 0 0 0 - - -, f 5;
#X floatatom 311 376 5 0 0 0 - - -, f 5;
#X obj 125 423 sig~ 0.04;
#X obj 184 423 sig~ 0.35;
#X obj 243 425 sig~ 0.58;
#X obj 103 274 inlet midi2;
#X obj 598 337 unpack;
#X obj 598 357 mtof;
#X obj 598 377 sig~;
#X obj 598 399 *~;
#X obj 653 351 loadbang;
#X obj 654 372 varalea~ 1000 0.99 1.01;
#X obj 686 490 r adsr_ctrl;
#X obj 686 511 unpack f f f f;
#X obj 653 530 adsr~ 10 250 0.3 500;
#X obj 627 530 *~;
#N canvas 600 355 495 447 modulationDeFrequence_3_oscils 0;
#X obj 14 350 +~;
#X obj 14 372 osc~;
#X obj 14 394 outlet~;
#X text 49 372 porteuse;
#X obj 6 7 inlet~ porteuse;
#X obj 183 42 inlet~ index1;
#X obj 118 35 *~;
#X obj 166 64 *~;
#X obj 119 90 *~;
#X obj 136 7 inlet~ ratio;
#X obj 101 114 +~;
#X text 80 65 mod 1;
#X text 62 143 mod 2;
#X obj 169 141 *~;
#X obj 102 166 *~;
#X obj 188 118 inlet~ index2;
#X obj 102 141 osc~;
#X obj 119 64 osc~;
#X obj 133 195 +~;
#X obj 201 222 *~;
#X obj 88 244 *~;
#X obj 134 222 osc~;
#X obj 78 282 +~;
#X obj 146 309 *~;
#X obj 79 334 *~;
#X obj 79 309 osc~;
#X obj 220 199 inlet~ index3;
#X obj 237 288 inlet~ index4;
#X text 94 223 mod 3;
#X text 39 311 mod 4;
#X connect 0 0 1 0;
#X connect 1 0 2 0;
#X connect 4 0 0 0;
#X connect 4 0 10 0;
#X connect 4 0 6 0;
#X connect 4 0 18 0;
#X connect 4 0 22 0;
#X connect 5 0 7 1;
#X connect 6 0 7 0;
#X connect 6 0 17 0;
#X connect 7 0 8 1;
#X connect 8 0 10 1;
#X connect 9 0 6 1;
#X connect 10 0 13 0;
#X connect 10 0 16 0;
#X connect 13 0 14 1;
#X connect 14 0 18 1;
#X connect 15 0 13 1;
#X connect 16 0 14 0;
#X connect 17 0 8 0;
#X connect 18 0 19 0;
#X connect 18 0 21 0;
#X connect 19 0 20 1;
#X connect 20 0 22 1;
#X connect 21 0 20 0;
#X connect 22 0 23 0;
#X connect 22 0 25 0;
#X connect 23 0 24 1;
#X connect 24 0 0 1;
#X connect 25 0 24 0;
#X connect 26 0 19 1;
#X connect 27 0 23 1;
#X restore 583 463 pd modulationDeFrequence_3_oscils;
#X floatatom 622 416 5 0 0 0 - - -, f 5;
#X floatatom 678 417 5 0 0 0 - - -, f 5;
#X floatatom 736 418 5 0 0 0 - - -, f 5;
#X obj 618 435 sig~ 0.04;
#X obj 677 435 sig~ 0.35;
#X obj 736 437 sig~ 0.58;
#X obj 36 37 unpack;
#X obj 36 57 mtof;
#X obj 36 77 sig~;
#X obj 36 99 *~;
#X obj 91 54 loadbang;
#X obj 92 75 varalea~ 1000 0.99 1.01;
#X obj 124 190 r adsr_ctrl;
#X obj 124 211 unpack f f f f;
#X obj 91 230 adsr~ 10 250 0.3 500;
#X obj 65 230 *~;
#N canvas 600 355 495 447 modulationDeFrequence_3_oscils 0;
#X obj 14 350 +~;
#X obj 14 372 osc~;
#X obj 14 394 outlet~;
#X text 49 372 porteuse;
#X obj 6 7 inlet~ porteuse;
#X obj 183 42 inlet~ index1;
#X obj 118 35 *~;
#X obj 166 64 *~;
#X obj 119 90 *~;
#X obj 136 7 inlet~ ratio;
#X obj 101 114 +~;
#X text 80 65 mod 1;
#X text 62 143 mod 2;
#X obj 169 141 *~;
#X obj 102 166 *~;
#X obj 188 118 inlet~ index2;
#X obj 102 141 osc~;
#X obj 119 64 osc~;
#X obj 133 195 +~;
#X obj 201 222 *~;
#X obj 88 244 *~;
#X obj 134 222 osc~;
#X obj 78 282 +~;
#X obj 146 309 *~;
#X obj 79 334 *~;
#X obj 79 309 osc~;
#X obj 220 199 inlet~ index3;
#X obj 237 288 inlet~ index4;
#X text 94 223 mod 3;
#X text 39 311 mod 4;
#X connect 0 0 1 0;
#X connect 1 0 2 0;
#X connect 4 0 0 0;
#X connect 4 0 10 0;
#X connect 4 0 6 0;
#X connect 4 0 18 0;
#X connect 4 0 22 0;
#X connect 5 0 7 1;
#X connect 6 0 7 0;
#X connect 6 0 17 0;
#X connect 7 0 8 1;
#X connect 8 0 10 1;
#X connect 9 0 6 1;
#X connect 10 0 13 0;
#X connect 10 0 16 0;
#X connect 13 0 14 1;
#X connect 14 0 18 1;
#X connect 15 0 13 1;
#X connect 16 0 14 0;
#X connect 17 0 8 0;
#X connect 18 0 19 0;
#X connect 18 0 21 0;
#X connect 19 0 20 1;
#X connect 20 0 22 1;
#X connect 21 0 20 0;
#X connect 22 0 23 0;
#X connect 22 0 25 0;
#X connect 23 0 24 1;
#X connect 24 0 0 1;
#X connect 25 0 24 0;
#X connect 26 0 19 1;
#X connect 27 0 23 1;
#X restore 21 163 pd modulationDeFrequence_3_oscils;
#X floatatom 60 116 5 0 0 0 - - -, f 5;
#X floatatom 116 122 5 0 0 0 - - -, f 5;
#X floatatom 174 118 5 0 0 0 - - -, f 5;
#X floatatom 235 114 5 0 0 0 - - -, f 5;
#X obj 56 135 sig~ 0.04;
#X obj 115 135 sig~ 0.35;
#X obj 174 137 sig~ 0.58;
#X obj 35 13 inlet midi1;
#X obj 350 0 inlet midi3;
#X obj 598 308 inlet midi4;
#X obj 698 55 inlet midi5;
#X obj 307 272 r ratio;
#X obj 113 102 r index1;
#X obj 424 90 r index1;
#X obj 777 144 r index1;
#X obj 684 397 r index1;
#X obj 180 385 r index1;
#X floatatom 809 424 5 0 0 0 - - -, f 5;
#X obj 738 399 r index2;
#X obj 488 90 r index2;
#X obj 245 386 r index2;
#X obj 838 143 r index2;
#X obj 903 142 r index3;
#X obj 808 402 r index3;
#X obj 311 355 r index3;
#X obj 236 94 r index3;
#X floatatom 240 182 5 0 0 0 - - -, f 5;
#X obj 235 159 r index4;
#X floatatom 618 118 5 0 0 0 - - -, f 5;
#X obj 619 100 r index4;
#X floatatom 915 249 5 0 0 0 - - -, f 5;
#X obj 910 226 r index4;
#X floatatom 877 477 5 0 0 0 - - -, f 5;
#X obj 877 456 r index4;
#X floatatom 378 417 5 0 0 0 - - -, f 5;
#X obj 380 394 r index4;
#X obj 174 99 r index2;
#X obj 552 85 r index3;
#X obj 915 271 sig~ 1.5;
#X obj 877 500 sig~ 1.5;
#X obj 379 439 sig~ 1.5;
#X obj 240 204 sig~ 1.5;
#X obj 618 140 sig~ 1.5;
#X obj 235 136 sig~ 0.97;
#X obj 549 128 sig~ 0.97;
#X obj 896 183 sig~ 0.97;
#X obj 809 446 sig~ 0.97;
#X obj 304 395 sig~ 0.97;
#X connect 0 0 1 0;
#X connect 0 1 8 0;
#X connect 1 0 2 0;
#X connect 2 0 3 0;
#X connect 3 0 11 0;
#X connect 4 0 5 0;
#X connect 5 0 3 1;
#X connect 6 0 7 0;
#X connect 7 0 8 1;
#X connect 7 1 8 2;
#X connect 7 2 8 3;
#X connect 7 3 8 4;
#X connect 8 0 9 1;
#X connect 9 0 10 0;
#X connect 11 0 9 0;
#X connect 12 0 16 0;
#X connect 13 0 17 0;
#X connect 14 0 18 0;
#X connect 15 0 128 0;
#X connect 16 0 11 1;
#X connect 17 0 11 2;
#X connect 18 0 11 3;
#X connect 19 0 20 0;
#X connect 19 1 27 0;
#X connect 20 0 21 0;
#X connect 21 0 22 0;
#X connect 22 0 29 0;
#X connect 23 0 24 0;
#X connect 24 0 22 1;
#X connect 25 0 26 0;
#X connect 26 0 27 1;
#X connect 26 1 27 2;
#X connect 26 2 27 3;
#X connect 26 3 27 4;
#X connect 27 0 28 1;
#X connect 28 0 10 0;
#X connect 29 0 28 0;
#X connect 30 0 34 0;
#X connect 31 0 35 0;
#X connect 32 0 36 0;
#X connect 33 0 129 0;
#X connect 34 0 29 1;
#X connect 35 0 29 2;
#X connect 36 0 29 3;
#X connect 37 0 38 0;
#X connect 37 1 45 0;
#X connect 38 0 39 0;
#X connect 39 0 40 0;
#X connect 40 0 47 0;
#X connect 41 0 42 0;
#X connect 42 0 40 1;
#X connect 43 0 44 0;
#X connect 44 0 45 1;
#X connect 44 1 45 2;
#X connect 44 2 45 3;
#X connect 44 3 45 4;
#X connect 45 0 46 1;
#X connect 46 0 10 0;
#X connect 47 0 46 0;
#X connect 48 0 52 0;
#X connect 49 0 53 0;
#X connect 50 0 54 0;
#X connect 51 0 131 0;
#X connect 52 0 47 1;
#X connect 53 0 47 2;
#X connect 54 0 47 3;
#X connect 55 0 37 0;
#X connect 56 0 57 0;
#X connect 56 1 64 0;
#X connect 57 0 58 0;
#X connect 58 0 59 0;
#X connect 59 0 66 0;
#X connect 60 0 61 0;
#X connect 61 0 59 1;
#X connect 62 0 63 0;
#X connect 63 0 64 1;
#X connect 63 1 64 2;
#X connect 63 2 64 3;
#X connect 63 3 64 4;
#X connect 64 0 65 1;
#X connect 65 0 10 0;
#X connect 66 0 65 0;
#X connect 67 0 70 0;
#X connect 68 0 71 0;
#X connect 69 0 72 0;
#X connect 70 0 66 1;
#X connect 71 0 66 2;
#X connect 72 0 66 3;
#X connect 73 0 74 0;
#X connect 73 1 81 0;
#X connect 74 0 75 0;
#X connect 75 0 76 0;
#X connect 76 0 83 0;
#X connect 77 0 78 0;
#X connect 78 0 76 1;
#X connect 79 0 80 0;
#X connect 80 0 81 1;
#X connect 80 1 81 2;
#X connect 80 2 81 3;
#X connect 80 3 81 4;
#X connect 81 0 82 1;
#X connect 82 0 10 0;
#X connect 83 0 82 0;
#X connect 84 0 88 0;
#X connect 85 0 89 0;
#X connect 86 0 90 0;
#X connect 87 0 127 0;
#X connect 88 0 83 1;
#X connect 89 0 83 2;
#X connect 90 0 83 3;
#X connect 91 0 73 0;
#X connect 92 0 0 0;
#X connect 93 0 56 0;
#X connect 94 0 19 0;
#X connect 95 0 84 0;
#X connect 95 0 12 0;
#X connect 95 0 67 0;
#X connect 95 0 48 0;
#X connect 95 0 30 0;
#X connect 96 0 85 0;
#X connect 97 0 13 0;
#X connect 98 0 31 0;
#X connect 99 0 68 0;
#X connect 100 0 49 0;
#X connect 101 0 130 0;
#X connect 102 0 69 0;
#X connect 103 0 14 0;
#X connect 104 0 50 0;
#X connect 105 0 32 0;
#X connect 106 0 33 0;
#X connect 107 0 101 0;
#X connect 108 0 51 0;
#X connect 109 0 87 0;
#X connect 110 0 125 0;
#X connect 111 0 110 0;
#X connect 112 0 126 0;
#X connect 113 0 112 0;
#X connect 114 0 122 0;
#X connect 115 0 114 0;
#X connect 116 0 123 0;
#X connect 117 0 116 0;
#X connect 118 0 124 0;
#X connect 119 0 118 0;
#X connect 120 0 86 0;
#X connect 121 0 15 0;
#X connect 122 0 29 5;
#X connect 123 0 66 5;
#X connect 124 0 47 5;
#X connect 125 0 83 5;
#X connect 126 0 11 5;
#X connect 127 0 83 4;
#X connect 128 0 11 4;
#X connect 129 0 29 4;
#X connect 130 0 66 4;
#X connect 131 0 47 4;
