#N canvas 307 23 1281 983 10;
#X obj 17 51 tgl 20 0 empty empty DSP 17 7 0 10 -261234 -1 -1 1 1;
#X msg 17 75 \; pd dsp \$1;
#X obj 17 28 loadbang;
#X obj 129 26 notein;
#X floatatom 129 59 5 0 0 0 - - -, f 5;
#X floatatom 165 59 5 0 0 0 - - -, f 5;
#X obj 118 108 pack f f f;
#X obj 118 129 route 1 2 3 4 5;
#X obj 129 85 poly 5;
#X obj 156 845 dac~;
#X obj 155 817 *~;
#X obj 332 816 hsl 150 20 0 1 0 1 empty empty Gain -2 -8 0 10 -261234
-1 -1 7450 0;
#X msg 262 799 \$1 50;
#X obj 262 821 line~;
#X obj 774 221 s ratio;
#X obj 760 256 s index1;
#X obj 775 323 s index2;
#X obj 760 367 s index3;
#X obj 772 410 s index4;
#X obj 834 190 hsl 150 15 0 6 0 0 empty rat RATIO -2 -8 0 10 -4032
-1 -1 353 1;
#X obj 834 241 hsl 150 15 0 7 0 0 empty index11 INDEX1 -2 -8 0 10 -4034
-1 -1 0 1;
#X obj 837 292 hsl 150 15 0 7 0 0 empty index22 INDEX2 -2 -8 0 10 -4034
-1 -1 0 1;
#X obj 835 345 hsl 150 15 0 7 0 0 empty index33 INDEX3 -2 -8 0 10 -4034
-1 -1 4818 1;
#X obj 836 395 hsl 150 15 0 7 0 0 empty index44 INDEX4 -2 -8 0 10 -4034
-1 -1 5321 1;
#X text 116 43 pitch velocity;
#X floatatom 831 207 5 0 0 0 - - -, f 5;
#X floatatom 831 259 5 0 0 0 - - -, f 5;
#X floatatom 833 310 5 0 0 0 - - -, f 5;
#X floatatom 832 362 5 0 0 0 - - -, f 5;
#X floatatom 833 412 5 0 0 0 - - -, f 5;
#X obj 329 753 loadbang;
#X msg 330 773 0.5;
#X obj 552 437 r roll;
#X obj 522 295 r pitch;
#X obj 413 199 r yaw;
#X floatatom 624 451 5 0 0 0 - - -, f 5;
#X floatatom 551 317 5 0 0 0 - - -, f 5;
#X floatatom 459 217 5 0 0 0 - - -, f 5;
#X obj 626 45 loadbang;
#X obj 291 220 tgl 25 0 empty empty START_STOP 17 7 0 10 -203904 -1
-1 0 1;
#X obj 305 508 hsl 80 15 0 1 0 0 empty empty empty -2 -8 0 10 -261682
-1 -1 0 1;
#X obj 304 561 hsl 80 15 0 1 0 0 empty empty empty -2 -8 0 10 -261682
-1 -1 0 1;
#X floatatom 307 580 5 0 0 0 - - -, f 5;
#X floatatom 302 525 5 0 0 0 - - -, f 5;
#X text 358 583 Damping level;
#X text 353 526 Roomize;
#X obj 219 340 hsl 128 25 0 1 0 0 empty empty Mix_fuzz_wha -2 -8 0
10 -262130 -1 -1 5801 1;
#X obj 553 470 zscale -60 0 0 1;
#X obj 366 300 loadbang;
#X msg 367 323 0.4;
#X obj 9 138 bng 15 250 50 0 empty empty empty 17 7 0 10 -262144 -1
-1;
#X obj 9 158 metro 100;
#X obj 9 121 loadbang;
#X obj 9 180 tabwrite~ INPUTT;
#X obj 19 685 bng 15 250 50 0 empty empty empty 17 7 0 10 -262144 -1
-1;
#X obj 19 705 metro 100;
#X obj 19 668 loadbang;
#X obj 19 727 tabwrite~ OUTPUTT;
#X obj 464 523 hsl 140 25 0 1 0 0 empty empty empty -2 -8 0 10 -260097
-1 -1 13900 1;
#X floatatom 460 508 5 0 0 0 - - -, f 5;
#X text 462 545 Mix Revb;
#X msg 615 78 RESET 0 \; rat 0.5 \; index11 0.35 \; index22 0.58 \;
index33 0.3 \; index44 0.4;
#X obj 524 342 zscale 0 60 0 2.5;
#N canvas 963 88 477 631 fuzzwha 0;
#X obj 47 288 *~;
#X obj 116 293 *~;
#X obj 147 248 pack 0 10;
#X obj 147 268 line~;
#X obj 62 242 pack 0 10;
#X obj 62 262 line~;
#X obj 96 215 expr 1-$f1;
#N canvas 782 184 727 583 Whawha_Guts 0;
#X obj 110 13 inlet~;
#X obj 163 540 outlet~;
#X obj 372 34 switch~;
#X obj 372 7 inlet;
#X obj 203 469 vcf~;
#X floatatom 297 431 5 0 0 0 - - -, f 5;
#X obj 297 298 vsl 15 128 0 20 0 0 empty empty empty 0 -9 0 10 -262144
-1 -1 3366 1;
#X obj 272 109 +~ 1;
#X obj 273 130 *~ 0.5;
#X obj 374 168 hsl 128 15 700 6000 0 0 empty empty empty -2 -8 0 10
-262144 -1 -1 0 1;
#X obj 328 238 hsl 128 15 0 700 0 0 empty empty empty -2 -8 0 10 -262144
-1 -1 0 1;
#X floatatom 325 257 6 0 0 0 - - -, f 6;
#X floatatom 326 199 6 0 0 0 - - -, f 6;
#X obj 326 180 -;
#X obj 326 158 bang;
#X obj 226 264 +~ 200;
#X obj 225 182 *~ 1500;
#X text 323 105 <-- LFO (Low-Frequency Oscillator;
#X text 507 163 <-- Maximum of the freq. range;
#X text 461 235 <-- Minimum of the freq. range;
#X text 334 388 <-- "Q";
#X text 245 468 <-- Voltage-Controlled band-pass filter;
#X obj 369 289 loadbang;
#X msg 367 314 5.3;
#X obj 217 503 *~ 3;
#X obj 272 87 osc~ 0.5;
#X connect 0 0 4 0;
#X connect 3 0 2 0;
#X connect 4 0 24 0;
#X connect 6 0 5 0;
#X connect 6 0 4 2;
#X connect 7 0 8 0;
#X connect 8 0 16 0;
#X connect 9 0 13 0;
#X connect 10 0 11 0;
#X connect 10 0 13 1;
#X connect 10 0 14 0;
#X connect 10 0 15 1;
#X connect 13 0 12 0;
#X connect 13 0 16 1;
#X connect 14 0 13 0;
#X connect 15 0 4 1;
#X connect 16 0 15 0;
#X connect 22 0 23 0;
#X connect 23 0 6 0;
#X connect 24 0 1 0;
#X connect 25 0 7 0;
#X restore 116 314 pd Whawha_Guts;
#X obj 387 71 tgl 15 0 empty empty empty 17 7 0 10 -262144 -1 -1 0
1;
#N canvas 0 22 450 300 Fuzz_Guts 0;
#X obj 110 13 inlet~;
#X obj 121 236 outlet~;
#X obj 372 34 switch~;
#X obj 372 7 inlet;
#X obj 109 71 *~ 10;
#X obj 110 113 clip~ -0.2 0.2;
#X connect 0 0 4 0;
#X connect 3 0 2 0;
#X connect 4 0 5 0;
#X connect 5 0 1 0;
#X restore 95 193 pd Fuzz_Guts;
#X obj 22 151 *~;
#X obj 91 156 *~;
#X obj 147 98 pack 0 10;
#X obj 147 118 line~;
#X obj 62 92 pack 0 10;
#X obj 62 112 line~;
#X obj 96 65 expr 1-$f1;
#X obj 23 121 *~;
#X obj 212 219 hsl 128 15 0 1 0 0 empty empty Mix_fuzz_wha -2 -8 0
10 -262130 -1 -1 5080 1;
#X obj 359 179 loadbang;
#X msg 360 202 0.4;
#X obj 91 397 outlet~;
#X obj 209 393 outlet~;
#X obj 14 33 inlet~;
#X obj 207 32 inlet;
#X obj 361 34 inlet;
#X connect 0 0 21 0;
#X connect 1 0 7 0;
#X connect 2 0 3 0;
#X connect 3 0 1 1;
#X connect 4 0 5 0;
#X connect 5 0 0 1;
#X connect 6 0 4 0;
#X connect 7 0 22 0;
#X connect 8 0 7 1;
#X connect 8 0 2 0;
#X connect 8 0 6 0;
#X connect 8 0 16 0;
#X connect 8 0 12 0;
#X connect 8 0 9 1;
#X connect 9 0 1 0;
#X connect 10 0 0 0;
#X connect 11 0 9 0;
#X connect 12 0 13 0;
#X connect 13 0 11 1;
#X connect 14 0 15 0;
#X connect 15 0 10 1;
#X connect 16 0 14 0;
#X connect 17 0 10 0;
#X connect 17 0 11 0;
#X connect 18 0 17 1;
#X connect 19 0 20 0;
#X connect 20 0 18 0;
#X connect 23 0 17 0;
#X connect 24 0 17 1;
#X connect 25 0 16 0;
#X connect 25 0 12 0;
#X connect 25 0 6 0;
#X connect 25 0 9 1;
#X connect 25 0 2 0;
#X connect 25 0 7 1;
#X restore 95 339 pd fuzzwha;
#X obj 172 315 tgl 25 0 empty empty OnOffFuzz 17 7 0 10 -257985 -1
-1 1 1;
#N canvas 741 139 694 602 chordloop 0;
#X msg 62 183 1 55 40 \, 2 59 40 \, 3 62 40 \, 4 66 40;
#X msg 63 209 1 0 0 \, 2 0 0 \, 3 0 0 \, 4 0 0 \, 5 0 0;
#X msg 63 236 1 56 40 \, 2 60 40 \, 3 63 40 \, 4 66 40;
#X obj 362 315 vradio 15 1 0 3 empty empty change_chord 0 -8 0 10 -262144
-1 -1 2;
#X obj 322 304 bng 15 250 50 0 empty empty empty 17 7 0 10 -262144
-1 -1;
#X msg 65 263 1 58 40 \, 2 62 40 \, 3 65 40 \, 4 69 40;
#X obj 362 236 counter 16;
#X obj 363 258 sel 0;
#X obj 361 210 metro 200;
#X obj 115 301 bng 15 250 50 0 empty empty empty 17 7 0 10 -262144
-1 -1;
#X obj 159 303 sel 0;
#X obj 224 305 sel 0 1 2;
#X obj 363 281 counter 3;
#X obj 90 401 outlet;
#X obj 174 402 outlet;
#X obj 258 401 outlet;
#X obj 344 404 outlet;
#X obj 385 126 inlet;
#X connect 0 0 13 0;
#X connect 1 0 14 0;
#X connect 2 0 15 0;
#X connect 3 0 11 0;
#X connect 5 0 16 0;
#X connect 6 0 7 0;
#X connect 7 0 12 0;
#X connect 8 0 6 0;
#X connect 9 0 1 0;
#X connect 10 0 9 0;
#X connect 11 0 4 0;
#X connect 11 0 0 0;
#X connect 11 1 4 0;
#X connect 11 1 2 0;
#X connect 11 2 4 0;
#X connect 11 2 5 0;
#X connect 11 3 4 0;
#X connect 12 0 3 0;
#X connect 17 0 10 0;
#X connect 17 0 8 0;
#X restore 174 245 pd chordloop;
#N canvas 604 196 705 452 reverbb 0;
#X obj 128 182 freeverb~;
#X msg 220 199 roomsize \$1;
#X msg 219 256 damping \$1;
#X msg 159 266 wet \$1;
#X msg 142 291 dry \$1;
#X msg 63 118 freeze \$1;
#X msg 63 158 bypass \$1;
#X obj 62 101 tgl 15 0 empty empty empty 17 7 0 10 -262144 -1 -1 0
1;
#X obj 63 141 tgl 15 0 empty empty empty 17 7 0 10 -262144 -1 -1 0
1;
#X obj 227 292 expr 1-$f1;
#X text 25 86 Freeze the reverb;
#X text 223 105 the dry signal pass through.;
#X text 229 92 Trun the reverb off and let;
#X text 303 291 Wet signal to dry signal ratio;
#X obj 85 33 inlet~;
#X obj 158 32 inlet~;
#X obj 167 382 outlet~;
#X obj 261 382 outlet~;
#X obj 262 34 inlet;
#X obj 328 32 inlet;
#X obj 406 30 inlet;
#X obj 473 31 inlet;
#X obj 554 29 inlet;
#X connect 0 0 16 0;
#X connect 0 1 17 0;
#X connect 1 0 0 0;
#X connect 2 0 0 0;
#X connect 3 0 0 0;
#X connect 4 0 0 0;
#X connect 5 0 0 0;
#X connect 6 0 0 0;
#X connect 7 0 5 0;
#X connect 8 0 6 0;
#X connect 9 0 4 0;
#X connect 14 0 0 0;
#X connect 15 0 0 0;
#X connect 18 0 5 0;
#X connect 19 0 6 0;
#X connect 20 0 2 0;
#X connect 21 0 1 0;
#X connect 22 0 3 0;
#X connect 22 0 9 0;
#X restore 168 534 pd reverbb;
#X obj 198 422 tgl 20 0 empty empty empty 17 7 0 10 -261682 -1 -1 0
1;
#X obj 226 457 tgl 25 0 empty empty Bypass 17 7 0 10 -260097 -1 -1
0 1;
#X text 220 422 Freeze the reverb;
#X text 293 469 the dry signal pass through.;
#X text 299 456 Trun the reverb off and let;
#X obj 293 669 hsl 140 25 100 15000 1 0 empty empty Passe-bas -2 -8
0 10 -191407 -1 -1 8310 1;
#X floatatom 290 696 5 0 0 0 - - -, f 5;
#X obj 220 627 loadbang;
#X msg 221 648 1000;
#X obj 172 295 loadbang;
#X obj 151 684 bob~;
#N canvas 821 122 317 511 threshold 0;
#X obj 57 225 > 1;
#X obj 57 245 sel 1;
#X obj 56 269 bng 15 250 50 0 empty empty empty 17 7 0 10 -262144 -1
-1;
#X floatatom 71 171 5 0 0 0 - - -, f 5;
#X obj 74 328 spigot;
#X msg 139 250 1;
#X obj 219 223 < 1;
#X obj 218 245 sel 1;
#X obj 217 270 bng 15 250 50 0 empty empty empty 17 7 0 10 -262144
-1 -1;
#X obj 205 316 spigot;
#X msg 124 360 1;
#X msg 142 304 0;
#X obj 64 391 bng 15 250 50 0 empty empty empty 17 7 0 10 -262144 -1
-1;
#X floatatom 177 151 5 0 0 0 - - -, f 5;
#X obj 136 223 loadbang;
#X text 172 132 thresh;
#X obj 71 135 r accelx;
#X obj 64 421 outlet;
#X msg 200 90 2;
#X obj 204 62 loadbang;
#X connect 0 0 1 0;
#X connect 1 0 2 0;
#X connect 2 0 4 0;
#X connect 3 0 0 0;
#X connect 3 0 6 0;
#X connect 4 0 10 0;
#X connect 4 0 11 0;
#X connect 4 0 12 0;
#X connect 5 0 4 1;
#X connect 6 0 7 0;
#X connect 7 0 8 0;
#X connect 8 0 9 0;
#X connect 9 0 5 0;
#X connect 10 0 9 1;
#X connect 11 0 4 1;
#X connect 12 0 17 0;
#X connect 13 0 0 1;
#X connect 13 0 6 1;
#X connect 14 0 5 0;
#X connect 16 0 3 0;
#X connect 18 0 13 0;
#X connect 19 0 18 0;
#X restore 291 180 pd threshold;
#X obj 291 201 bng 15 250 50 0 empty empty empty 17 7 0 10 -262144
-1 -1;
#X obj 415 264 zscale 0 90 2.5 0;
#X obj 541 498 zscale -60 0 0 2.5;
#X obj 523 210 zscale 0 90 0 1.5;
#X obj 434 864 r levell;
#X obj 354 863 r levelh;
#N canvas 822 122 317 511 threshold2 0;
#X obj 57 225 > 1;
#X obj 57 245 sel 1;
#X obj 56 269 bng 15 250 50 0 empty empty empty 17 7 0 10 -262144 -1
-1;
#X floatatom 71 171 5 0 0 0 - - -, f 5;
#X obj 74 328 spigot;
#X msg 139 250 1;
#X obj 219 223 < 1;
#X obj 218 245 sel 1;
#X obj 217 270 bng 15 250 50 0 empty empty empty 17 7 0 10 -262144
-1 -1;
#X obj 205 316 spigot;
#X msg 124 360 1;
#X msg 142 304 0;
#X obj 64 391 bng 15 250 50 0 empty empty empty 17 7 0 10 -262144 -1
-1;
#X floatatom 177 151 5 0 0 0 - - -, f 5;
#X obj 136 223 loadbang;
#X text 172 132 thresh;
#X obj 64 421 outlet;
#X msg 200 90 2;
#X obj 204 62 loadbang;
#X msg 164 409 0.7;
#X msg 217 410 0.5;
#X obj 123 473 s levelh;
#X obj 219 468 s levell;
#X obj 72 135 r accelz;
#X obj 218 443 line 0 1500;
#X obj 123 450 line 0 300;
#X connect 0 0 1 0;
#X connect 1 0 2 0;
#X connect 2 0 4 0;
#X connect 3 0 0 0;
#X connect 3 0 6 0;
#X connect 4 0 10 0;
#X connect 4 0 11 0;
#X connect 4 0 12 0;
#X connect 5 0 4 1;
#X connect 6 0 7 0;
#X connect 7 0 8 0;
#X connect 8 0 9 0;
#X connect 8 0 20 0;
#X connect 9 0 5 0;
#X connect 10 0 9 1;
#X connect 11 0 4 1;
#X connect 12 0 16 0;
#X connect 12 0 19 0;
#X connect 13 0 0 1;
#X connect 13 0 6 1;
#X connect 14 0 5 0;
#X connect 17 0 13 0;
#X connect 18 0 17 0;
#X connect 19 0 25 0;
#X connect 20 0 24 0;
#X connect 23 0 3 0;
#X connect 24 0 22 0;
#X connect 25 0 21 0;
#X restore 501 821 pd threshold2;
#N canvas 464 213 646 726 synthh 0;
#X obj 166 120 trigger-train;
#X obj 166 37 clock;
#X obj 162 684 outlet~;
#X obj 239 684 outlet~;
#X obj 406 14 inlet;
#X obj 118 330 polysynth;
#X obj 226 579 *~, f 7;
#X obj 127 577 *~, f 7;
#X obj 402 551 hsl 150 20 0 1 0 1 empty empty Gain -2 -8 0 10 -261234
-1 -1 7450 0;
#X msg 332 534 \$1 50;
#X obj 332 556 line~;
#X obj 399 488 loadbang;
#X msg 400 508 0.5;
#X connect 0 0 5 0;
#X connect 1 0 0 0;
#X connect 4 0 1 1;
#X connect 5 0 6 0;
#X connect 5 0 7 0;
#X connect 5 1 6 0;
#X connect 5 1 7 0;
#X connect 6 0 3 0;
#X connect 7 0 2 0;
#X connect 8 0 9 0;
#X connect 9 0 10 0;
#X connect 10 0 7 1;
#X connect 10 0 6 1;
#X connect 11 0 12 0;
#X connect 12 0 8 0;
#X restore 16 462 pd synthh;
#X obj 28 411 tgl 25 0 empty empty START_STOP 17 7 0 10 -203904 -1
-1 0 1;
#N canvas 822 122 317 511 threshold2 0;
#X obj 57 225 > 1;
#X obj 57 245 sel 1;
#X obj 56 269 bng 15 250 50 0 empty empty empty 17 7 0 10 -262144 -1
-1;
#X floatatom 71 171 5 0 0 0 - - -, f 5;
#X obj 74 328 spigot;
#X msg 139 250 1;
#X obj 219 223 < 1;
#X obj 218 245 sel 1;
#X obj 217 270 bng 15 250 50 0 empty empty empty 17 7 0 10 -262144
-1 -1;
#X obj 205 316 spigot;
#X msg 124 360 1;
#X msg 142 304 0;
#X obj 64 391 bng 15 250 50 0 empty empty empty 17 7 0 10 -262144 -1
-1;
#X floatatom 177 151 5 0 0 0 - - -, f 5;
#X obj 136 223 loadbang;
#X text 172 132 thresh;
#X obj 64 421 outlet;
#X msg 200 90 2;
#X obj 204 62 loadbang;
#X obj 71 135 r accelz;
#X connect 0 0 1 0;
#X connect 1 0 2 0;
#X connect 2 0 4 0;
#X connect 3 0 0 0;
#X connect 3 0 6 0;
#X connect 4 0 10 0;
#X connect 4 0 11 0;
#X connect 4 0 12 0;
#X connect 5 0 4 1;
#X connect 6 0 7 0;
#X connect 7 0 8 0;
#X connect 8 0 9 0;
#X connect 9 0 5 0;
#X connect 10 0 9 1;
#X connect 11 0 4 1;
#X connect 12 0 16 0;
#X connect 13 0 0 1;
#X connect 13 0 6 1;
#X connect 14 0 5 0;
#X connect 17 0 13 0;
#X connect 18 0 17 0;
#X connect 19 0 3 0;
#X restore 12 380 pd threshold2;
#X obj 527 378 zscale 0 60 2000 13000;
#N canvas 424 114 793 402 table 0;
#N canvas 0 22 450 278 (subpatch) 0;
#X array INPUTT 100 float 3;
#A 0 0 0 0 0 0 0 0 0 0 0 0 0 0 0 0 0 0 0 0 0 0 0 0 0 0 0 0 0 0 0 0
0 0 0 0 0 0 0 0 0 0 0 0 0 0 0 0 0 0 0 0 0 0 0 0 0 0 0 0 0 0 0 0 0 0
0 0 0 0 0 0 0 0 0 0 0 0 0 0 0 0 0 0 0 0 0 0 0 0 0 0 0 0 0 0 0 0 0 0
0;
#X coords 0 1 100 -1 200 140 1;
#X restore 64 77 graph;
#N canvas 0 22 450 278 (subpatch) 0;
#X array OUTPUTT 100 float 3;
#A 0 -3.11039e-07 -3.39543e-07 -3.69634e-07 -4.01375e-07 -4.3482e-07
-4.70008e-07 -5.06967e-07 -5.45711e-07 -5.8624e-07 -6.28543e-07 -6.72591e-07
-7.18346e-07 -7.65752e-07 -8.14741e-07 -8.65233e-07 -9.17133e-07 -9.70334e-07
-1.02472e-06 -1.08015e-06 -1.13649e-06 -1.19359e-06 -1.25128e-06 -1.30939e-06
-1.36774e-06 -1.42613e-06 -1.48438e-06 -1.54228e-06 -1.59961e-06 -1.65618e-06
-1.71177e-06 -1.76616e-06 -1.81914e-06 -1.87048e-06 -1.91998e-06 -1.96742e-06
-2.01259e-06 -2.0553e-06 -2.09533e-06 -2.1325e-06 -2.16662e-06 -2.19751e-06
-2.22501e-06 -2.24896e-06 -2.26921e-06 -2.28562e-06 -2.29807e-06 -2.30645e-06
-2.31066e-06 -2.31062e-06 -2.30626e-06 -2.29752e-06 -2.28436e-06 -2.26676e-06
-2.2447e-06 -2.21819e-06 -2.18725e-06 -2.15191e-06 -2.11222e-06 -2.06824e-06
-2.02006e-06 -1.96776e-06 -1.91145e-06 -1.85126e-06 -1.7873e-06 -1.71974e-06
-1.64871e-06 -1.5744e-06 -1.49697e-06 -1.4166e-06 -1.3335e-06 -1.24787e-06
-1.1599e-06 -1.06982e-06 -9.77834e-07 -8.84175e-07 -7.89064e-07 -6.9273e-07
-5.95403e-07 -4.97313e-07 -3.98693e-07 -2.99773e-07 -2.0078e-07 -1.0194e-07
-3.47497e-09 9.43982e-08 1.91468e-07 2.87528e-07 3.8238e-07 4.75831e-07
5.67696e-07 6.57798e-07 7.45971e-07 8.32054e-07 9.15899e-07 9.97364e-07
1.07632e-06 1.15265e-06 1.22624e-06 1.29699e-06 1.36482e-06;
#X coords 0 1 100 -1 200 140 1;
#X restore 287 82 graph;
#X restore 708 556 pd table;
#N canvas 0 22 724 211 adsr 0;
#X floatatom 15 84 5 0 0 0 - - -, f 5;
#X floatatom 165 75 5 0 0 0 - - -, f 5;
#X floatatom 305 75 5 0 0 0 - - -, f 5;
#X floatatom 436 73 5 0 0 0 - - -, f 5;
#X obj 471 150 pack f f f f;
#X obj 291 133 t b f;
#X obj 347 134 t b f;
#X obj 403 134 t b f;
#X obj 471 169 s adsr_ctrl;
#X obj 16 40 loadbang;
#X obj 165 33 loadbang;
#X obj 305 30 loadbang;
#X obj 436 28 loadbang;
#X msg 305 52 0.3;
#X msg 436 50 500;
#X obj 58 98 hsl 100 15 0 100 0 0 empty empty A -2 -8 0 10 -232576
-1 -1 9900 1;
#X obj 206 100 hsl 100 15 0 300 0 0 empty empty D -2 -8 0 10 -232576
-1 -1 9900 1;
#X obj 355 102 hsl 100 15 0 1.5 0 0 empty empty S -2 -8 0 10 -232576
-1 -1 1980 1;
#X obj 499 103 hsl 100 15 200 1000 0 0 empty empty R -2 -8 0 10 -232576
-1 -1 3712 1;
#X floatatom 162 99 5 0 0 0 - - -, f 5;
#X floatatom 310 102 5 0 0 0 - - -, f 5;
#X floatatom 458 103 5 0 0 0 - - -, f 5;
#X floatatom 603 104 5 0 0 0 - - -, f 5;
#X msg 165 55 500;
#X msg 16 62 100;
#X connect 0 0 15 0;
#X connect 1 0 16 0;
#X connect 2 0 17 0;
#X connect 3 0 18 0;
#X connect 4 0 8 0;
#X connect 5 0 4 0;
#X connect 5 1 4 1;
#X connect 6 0 4 0;
#X connect 6 1 4 2;
#X connect 7 0 4 0;
#X connect 7 1 4 3;
#X connect 9 0 24 0;
#X connect 10 0 23 0;
#X connect 11 0 13 0;
#X connect 12 0 14 0;
#X connect 13 0 2 0;
#X connect 14 0 3 0;
#X connect 15 0 19 0;
#X connect 16 0 20 0;
#X connect 17 0 21 0;
#X connect 18 0 22 0;
#X connect 19 0 4 0;
#X connect 20 0 5 0;
#X connect 21 0 6 0;
#X connect 22 0 7 0;
#X connect 23 0 1 0;
#X connect 24 0 0 0;
#X restore 470 96 pd adsr;
#N canvas 254 112 992 629 5voixfm 0;
#X obj 350 41 unpack;
#X obj 350 61 mtof;
#X obj 350 81 sig~;
#X obj 350 103 *~;
#X obj 405 57 loadbang;
#X obj 406 78 varalea~ 1000 0.99 1.01;
#X obj 438 194 r adsr_ctrl;
#X obj 438 215 unpack f f f f;
#X obj 405 234 adsr~ 10 250 0.3 500;
#X obj 379 234 *~;
#X obj 387 283 outlet~;
#N canvas 600 355 495 447 modulationDeFrequence_3_oscils 0;
#X obj 14 350 +~;
#X obj 14 372 osc~;
#X obj 14 394 outlet~;
#X text 49 372 porteuse;
#X obj 6 7 inlet~ porteuse;
#X obj 183 42 inlet~ index1;
#X obj 118 35 *~;
#X obj 166 64 *~;
#X obj 119 90 *~;
#X obj 136 7 inlet~ ratio;
#X obj 101 114 +~;
#X text 80 65 mod 1;
#X text 62 143 mod 2;
#X obj 169 141 *~;
#X obj 102 166 *~;
#X obj 188 118 inlet~ index2;
#X obj 102 141 osc~;
#X obj 119 64 osc~;
#X obj 133 195 +~;
#X obj 201 222 *~;
#X obj 88 244 *~;
#X obj 134 222 osc~;
#X obj 78 282 +~;
#X obj 146 309 *~;
#X obj 79 334 *~;
#X obj 79 309 osc~;
#X obj 220 199 inlet~ index3;
#X obj 237 288 inlet~ index4;
#X text 94 223 mod 3;
#X text 39 311 mod 4;
#X connect 0 0 1 0;
#X connect 1 0 2 0;
#X connect 4 0 0 0;
#X connect 4 0 10 0;
#X connect 4 0 6 0;
#X connect 4 0 18 0;
#X connect 4 0 22 0;
#X connect 5 0 7 1;
#X connect 6 0 7 0;
#X connect 6 0 17 0;
#X connect 7 0 8 1;
#X connect 8 0 10 1;
#X connect 9 0 6 1;
#X connect 10 0 13 0;
#X connect 10 0 16 0;
#X connect 13 0 14 1;
#X connect 14 0 18 1;
#X connect 15 0 13 1;
#X connect 16 0 14 0;
#X connect 17 0 8 0;
#X connect 18 0 19 0;
#X connect 18 0 21 0;
#X connect 19 0 20 1;
#X connect 20 0 22 1;
#X connect 21 0 20 0;
#X connect 22 0 23 0;
#X connect 22 0 25 0;
#X connect 23 0 24 1;
#X connect 24 0 0 1;
#X connect 25 0 24 0;
#X connect 26 0 19 1;
#X connect 27 0 23 1;
#X restore 335 167 pd modulationDeFrequence_3_oscils;
#X floatatom 374 120 5 0 0 0 - - -, f 5;
#X floatatom 430 121 5 0 0 0 - - -, f 5;
#X floatatom 488 122 5 0 0 0 - - -, f 5;
#X floatatom 549 118 5 0 0 0 - - -, f 5;
#X obj 370 139 sig~ 0.04;
#X obj 429 139 sig~ 0.35;
#X obj 488 141 sig~ 0.58;
#X obj 697 96 unpack;
#X obj 697 116 mtof;
#X obj 697 136 sig~;
#X obj 697 158 *~;
#X obj 752 114 loadbang;
#X obj 753 135 varalea~ 1000 0.99 1.01;
#X obj 785 249 r adsr_ctrl;
#X obj 785 270 unpack f f f f;
#X obj 752 289 adsr~ 10 250 0.3 500;
#X obj 726 289 *~;
#N canvas 600 355 495 447 modulationDeFrequence_3_oscils 0;
#X obj 14 350 +~;
#X obj 14 372 osc~;
#X obj 14 394 outlet~;
#X text 49 372 porteuse;
#X obj 6 7 inlet~ porteuse;
#X obj 183 42 inlet~ index1;
#X obj 118 35 *~;
#X obj 166 64 *~;
#X obj 119 90 *~;
#X obj 136 7 inlet~ ratio;
#X obj 101 114 +~;
#X text 80 65 mod 1;
#X text 62 143 mod 2;
#X obj 169 141 *~;
#X obj 102 166 *~;
#X obj 188 118 inlet~ index2;
#X obj 102 141 osc~;
#X obj 119 64 osc~;
#X obj 133 195 +~;
#X obj 201 222 *~;
#X obj 88 244 *~;
#X obj 134 222 osc~;
#X obj 78 282 +~;
#X obj 146 309 *~;
#X obj 79 334 *~;
#X obj 79 309 osc~;
#X obj 220 199 inlet~ index3;
#X obj 237 288 inlet~ index4;
#X text 94 223 mod 3;
#X text 39 311 mod 4;
#X connect 0 0 1 0;
#X connect 1 0 2 0;
#X connect 4 0 0 0;
#X connect 4 0 10 0;
#X connect 4 0 6 0;
#X connect 4 0 18 0;
#X connect 4 0 22 0;
#X connect 5 0 7 1;
#X connect 6 0 7 0;
#X connect 6 0 17 0;
#X connect 7 0 8 1;
#X connect 8 0 10 1;
#X connect 9 0 6 1;
#X connect 10 0 13 0;
#X connect 10 0 16 0;
#X connect 13 0 14 1;
#X connect 14 0 18 1;
#X connect 15 0 13 1;
#X connect 16 0 14 0;
#X connect 17 0 8 0;
#X connect 18 0 19 0;
#X connect 18 0 21 0;
#X connect 19 0 20 1;
#X connect 20 0 22 1;
#X connect 21 0 20 0;
#X connect 22 0 23 0;
#X connect 22 0 25 0;
#X connect 23 0 24 1;
#X connect 24 0 0 1;
#X connect 25 0 24 0;
#X connect 26 0 19 1;
#X connect 27 0 23 1;
#X restore 682 222 pd modulationDeFrequence_3_oscils;
#X floatatom 721 175 5 0 0 0 - - -, f 5;
#X floatatom 777 176 5 0 0 0 - - -, f 5;
#X floatatom 835 177 5 0 0 0 - - -, f 5;
#X floatatom 896 173 5 0 0 0 - - -, f 5;
#X obj 717 194 sig~ 0.04;
#X obj 776 194 sig~ 0.35;
#X obj 835 196 sig~ 0.58;
#X obj 103 315 unpack;
#X obj 103 335 mtof;
#X obj 103 355 sig~;
#X obj 103 377 *~;
#X obj 158 331 loadbang;
#X obj 159 352 varalea~ 1000 0.99 1.01;
#X obj 193 490 r adsr_ctrl;
#X obj 193 511 unpack f f f f;
#X obj 160 530 adsr~ 10 250 0.3 500;
#X obj 99 519 *~;
#N canvas 600 355 495 447 modulationDeFrequence_3_oscils 0;
#X obj 14 350 +~;
#X obj 14 372 osc~;
#X obj 14 394 outlet~;
#X text 49 372 porteuse;
#X obj 6 7 inlet~ porteuse;
#X obj 183 42 inlet~ index1;
#X obj 118 35 *~;
#X obj 166 64 *~;
#X obj 119 90 *~;
#X obj 136 7 inlet~ ratio;
#X obj 101 114 +~;
#X text 80 65 mod 1;
#X text 62 143 mod 2;
#X obj 169 141 *~;
#X obj 102 166 *~;
#X obj 188 118 inlet~ index2;
#X obj 102 141 osc~;
#X obj 119 64 osc~;
#X obj 133 195 +~;
#X obj 201 222 *~;
#X obj 88 244 *~;
#X obj 134 222 osc~;
#X obj 78 282 +~;
#X obj 146 309 *~;
#X obj 79 334 *~;
#X obj 79 309 osc~;
#X obj 220 199 inlet~ index3;
#X obj 237 288 inlet~ index4;
#X text 94 223 mod 3;
#X text 39 311 mod 4;
#X connect 0 0 1 0;
#X connect 1 0 2 0;
#X connect 4 0 0 0;
#X connect 4 0 10 0;
#X connect 4 0 6 0;
#X connect 4 0 18 0;
#X connect 4 0 22 0;
#X connect 5 0 7 1;
#X connect 6 0 7 0;
#X connect 6 0 17 0;
#X connect 7 0 8 1;
#X connect 8 0 10 1;
#X connect 9 0 6 1;
#X connect 10 0 13 0;
#X connect 10 0 16 0;
#X connect 13 0 14 1;
#X connect 14 0 18 1;
#X connect 15 0 13 1;
#X connect 16 0 14 0;
#X connect 17 0 8 0;
#X connect 18 0 19 0;
#X connect 18 0 21 0;
#X connect 19 0 20 1;
#X connect 20 0 22 1;
#X connect 21 0 20 0;
#X connect 22 0 23 0;
#X connect 22 0 25 0;
#X connect 23 0 24 1;
#X connect 24 0 0 1;
#X connect 25 0 24 0;
#X connect 26 0 19 1;
#X connect 27 0 23 1;
#X restore 90 463 pd modulationDeFrequence_3_oscils;
#X floatatom 125 414 5 0 0 0 - - -, f 5;
#X floatatom 185 418 5 0 0 0 - - -, f 5;
#X floatatom 243 418 5 0 0 0 - - -, f 5;
#X floatatom 311 388 5 0 0 0 - - -, f 5;
#X obj 125 435 sig~ 0.04;
#X obj 184 435 sig~ 0.35;
#X obj 243 437 sig~ 0.58;
#X obj 103 286 inlet midi2;
#X obj 598 349 unpack;
#X obj 598 369 mtof;
#X obj 598 389 sig~;
#X obj 598 411 *~;
#X obj 653 363 loadbang;
#X obj 654 384 varalea~ 1000 0.99 1.01;
#X obj 686 502 r adsr_ctrl;
#X obj 686 523 unpack f f f f;
#X obj 653 542 adsr~ 10 250 0.3 500;
#X obj 627 542 *~;
#N canvas 600 355 495 447 modulationDeFrequence_3_oscils 0;
#X obj 14 350 +~;
#X obj 14 372 osc~;
#X obj 14 394 outlet~;
#X text 49 372 porteuse;
#X obj 6 7 inlet~ porteuse;
#X obj 183 42 inlet~ index1;
#X obj 118 35 *~;
#X obj 166 64 *~;
#X obj 119 90 *~;
#X obj 136 7 inlet~ ratio;
#X obj 101 114 +~;
#X text 80 65 mod 1;
#X text 62 143 mod 2;
#X obj 169 141 *~;
#X obj 102 166 *~;
#X obj 188 118 inlet~ index2;
#X obj 102 141 osc~;
#X obj 119 64 osc~;
#X obj 133 195 +~;
#X obj 201 222 *~;
#X obj 88 244 *~;
#X obj 134 222 osc~;
#X obj 78 282 +~;
#X obj 146 309 *~;
#X obj 79 334 *~;
#X obj 79 309 osc~;
#X obj 220 199 inlet~ index3;
#X obj 237 288 inlet~ index4;
#X text 94 223 mod 3;
#X text 39 311 mod 4;
#X connect 0 0 1 0;
#X connect 1 0 2 0;
#X connect 4 0 0 0;
#X connect 4 0 10 0;
#X connect 4 0 6 0;
#X connect 4 0 18 0;
#X connect 4 0 22 0;
#X connect 5 0 7 1;
#X connect 6 0 7 0;
#X connect 6 0 17 0;
#X connect 7 0 8 1;
#X connect 8 0 10 1;
#X connect 9 0 6 1;
#X connect 10 0 13 0;
#X connect 10 0 16 0;
#X connect 13 0 14 1;
#X connect 14 0 18 1;
#X connect 15 0 13 1;
#X connect 16 0 14 0;
#X connect 17 0 8 0;
#X connect 18 0 19 0;
#X connect 18 0 21 0;
#X connect 19 0 20 1;
#X connect 20 0 22 1;
#X connect 21 0 20 0;
#X connect 22 0 23 0;
#X connect 22 0 25 0;
#X connect 23 0 24 1;
#X connect 24 0 0 1;
#X connect 25 0 24 0;
#X connect 26 0 19 1;
#X connect 27 0 23 1;
#X restore 583 475 pd modulationDeFrequence_3_oscils;
#X floatatom 622 428 5 0 0 0 - - -, f 5;
#X floatatom 678 429 5 0 0 0 - - -, f 5;
#X floatatom 736 430 5 0 0 0 - - -, f 5;
#X obj 618 447 sig~ 0.04;
#X obj 677 447 sig~ 0.35;
#X obj 736 449 sig~ 0.58;
#X obj 36 49 unpack;
#X obj 36 69 mtof;
#X obj 36 89 sig~;
#X obj 36 111 *~;
#X obj 91 66 loadbang;
#X obj 92 87 varalea~ 1000 0.99 1.01;
#X obj 124 202 r adsr_ctrl;
#X obj 124 223 unpack f f f f;
#X obj 91 242 adsr~ 10 250 0.3 500;
#X obj 65 242 *~;
#N canvas 600 355 495 447 modulationDeFrequence_3_oscils 0;
#X obj 14 350 +~;
#X obj 14 372 osc~;
#X obj 14 394 outlet~;
#X text 49 372 porteuse;
#X obj 6 7 inlet~ porteuse;
#X obj 183 42 inlet~ index1;
#X obj 118 35 *~;
#X obj 166 64 *~;
#X obj 119 90 *~;
#X obj 136 7 inlet~ ratio;
#X obj 101 114 +~;
#X text 80 65 mod 1;
#X text 62 143 mod 2;
#X obj 169 141 *~;
#X obj 102 166 *~;
#X obj 188 118 inlet~ index2;
#X obj 102 141 osc~;
#X obj 119 64 osc~;
#X obj 133 195 +~;
#X obj 201 222 *~;
#X obj 88 244 *~;
#X obj 134 222 osc~;
#X obj 78 282 +~;
#X obj 146 309 *~;
#X obj 79 334 *~;
#X obj 79 309 osc~;
#X obj 220 199 inlet~ index3;
#X obj 237 288 inlet~ index4;
#X text 94 223 mod 3;
#X text 39 311 mod 4;
#X connect 0 0 1 0;
#X connect 1 0 2 0;
#X connect 4 0 0 0;
#X connect 4 0 10 0;
#X connect 4 0 6 0;
#X connect 4 0 18 0;
#X connect 4 0 22 0;
#X connect 5 0 7 1;
#X connect 6 0 7 0;
#X connect 6 0 17 0;
#X connect 7 0 8 1;
#X connect 8 0 10 1;
#X connect 9 0 6 1;
#X connect 10 0 13 0;
#X connect 10 0 16 0;
#X connect 13 0 14 1;
#X connect 14 0 18 1;
#X connect 15 0 13 1;
#X connect 16 0 14 0;
#X connect 17 0 8 0;
#X connect 18 0 19 0;
#X connect 18 0 21 0;
#X connect 19 0 20 1;
#X connect 20 0 22 1;
#X connect 21 0 20 0;
#X connect 22 0 23 0;
#X connect 22 0 25 0;
#X connect 23 0 24 1;
#X connect 24 0 0 1;
#X connect 25 0 24 0;
#X connect 26 0 19 1;
#X connect 27 0 23 1;
#X restore 21 175 pd modulationDeFrequence_3_oscils;
#X floatatom 60 128 5 0 0 0 - - -, f 5;
#X floatatom 116 134 5 0 0 0 - - -, f 5;
#X floatatom 174 130 5 0 0 0 - - -, f 5;
#X floatatom 235 126 5 0 0 0 - - -, f 5;
#X obj 56 147 sig~ 0.04;
#X obj 115 147 sig~ 0.35;
#X obj 174 149 sig~ 0.58;
#X obj 35 25 inlet midi1;
#X obj 350 12 inlet midi3;
#X obj 598 320 inlet midi4;
#X obj 698 67 inlet midi5;
#X obj 307 284 r ratio;
#X obj 113 114 r index1;
#X obj 424 102 r index1;
#X obj 777 156 r index1;
#X obj 684 409 r index1;
#X obj 180 397 r index1;
#X floatatom 809 436 5 0 0 0 - - -, f 5;
#X obj 738 411 r index2;
#X obj 488 102 r index2;
#X obj 245 398 r index2;
#X obj 838 155 r index2;
#X obj 903 154 r index3;
#X obj 808 414 r index3;
#X obj 311 367 r index3;
#X obj 236 106 r index3;
#X floatatom 240 194 5 0 0 0 - - -, f 5;
#X obj 235 171 r index4;
#X floatatom 618 130 5 0 0 0 - - -, f 5;
#X obj 619 112 r index4;
#X floatatom 915 261 5 0 0 0 - - -, f 5;
#X obj 910 238 r index4;
#X floatatom 877 489 5 0 0 0 - - -, f 5;
#X obj 877 468 r index4;
#X floatatom 378 429 5 0 0 0 - - -, f 5;
#X obj 380 406 r index4;
#X obj 174 111 r index2;
#X obj 552 97 r index3;
#X obj 915 283 sig~ 1.5;
#X obj 877 512 sig~ 1.5;
#X obj 379 451 sig~ 1.5;
#X obj 240 216 sig~ 1.5;
#X obj 618 152 sig~ 1.5;
#X obj 235 148 sig~ 0.97;
#X obj 549 140 sig~ 0.97;
#X obj 896 195 sig~ 0.97;
#X obj 809 458 sig~ 0.97;
#X obj 304 407 sig~ 0.97;
#X obj 412 568 line~;
#X msg 413 545 \$1 50;
#X obj 496 585 line~;
#X msg 497 562 \$1 50;
#X connect 0 0 1 0;
#X connect 0 1 8 0;
#X connect 1 0 2 0;
#X connect 2 0 3 0;
#X connect 3 0 11 0;
#X connect 4 0 5 0;
#X connect 5 0 3 1;
#X connect 6 0 7 0;
#X connect 7 0 8 1;
#X connect 7 1 8 2;
#X connect 7 2 8 3;
#X connect 7 3 8 4;
#X connect 8 0 9 1;
#X connect 9 0 10 0;
#X connect 11 0 9 0;
#X connect 12 0 16 0;
#X connect 13 0 17 0;
#X connect 14 0 18 0;
#X connect 15 0 128 0;
#X connect 16 0 11 1;
#X connect 17 0 11 2;
#X connect 18 0 11 3;
#X connect 19 0 20 0;
#X connect 19 1 27 0;
#X connect 20 0 21 0;
#X connect 21 0 22 0;
#X connect 22 0 29 0;
#X connect 23 0 24 0;
#X connect 24 0 22 1;
#X connect 25 0 26 0;
#X connect 26 0 27 1;
#X connect 26 1 27 2;
#X connect 26 2 27 3;
#X connect 26 3 27 4;
#X connect 27 0 28 1;
#X connect 28 0 10 0;
#X connect 29 0 28 0;
#X connect 30 0 34 0;
#X connect 31 0 35 0;
#X connect 32 0 36 0;
#X connect 33 0 129 0;
#X connect 34 0 29 1;
#X connect 35 0 29 2;
#X connect 36 0 29 3;
#X connect 37 0 38 0;
#X connect 37 1 45 0;
#X connect 38 0 39 0;
#X connect 39 0 40 0;
#X connect 40 0 47 0;
#X connect 41 0 42 0;
#X connect 42 0 40 1;
#X connect 43 0 44 0;
#X connect 44 0 45 1;
#X connect 44 1 45 2;
#X connect 44 2 45 3;
#X connect 44 3 45 4;
#X connect 45 0 46 1;
#X connect 46 0 10 0;
#X connect 47 0 46 0;
#X connect 48 0 52 0;
#X connect 49 0 53 0;
#X connect 50 0 54 0;
#X connect 51 0 131 0;
#X connect 52 0 47 1;
#X connect 53 0 47 2;
#X connect 54 0 47 3;
#X connect 55 0 37 0;
#X connect 56 0 57 0;
#X connect 56 1 64 0;
#X connect 57 0 58 0;
#X connect 58 0 59 0;
#X connect 59 0 66 0;
#X connect 60 0 61 0;
#X connect 61 0 59 1;
#X connect 62 0 63 0;
#X connect 63 0 64 1;
#X connect 63 1 64 2;
#X connect 63 2 64 3;
#X connect 63 3 64 4;
#X connect 64 0 65 1;
#X connect 65 0 10 0;
#X connect 66 0 65 0;
#X connect 67 0 70 0;
#X connect 68 0 71 0;
#X connect 69 0 72 0;
#X connect 70 0 66 1;
#X connect 71 0 66 2;
#X connect 72 0 66 3;
#X connect 73 0 74 0;
#X connect 73 1 81 0;
#X connect 74 0 75 0;
#X connect 75 0 76 0;
#X connect 76 0 83 0;
#X connect 77 0 78 0;
#X connect 78 0 76 1;
#X connect 79 0 80 0;
#X connect 80 0 81 1;
#X connect 80 1 81 2;
#X connect 80 2 81 3;
#X connect 80 3 81 4;
#X connect 81 0 82 1;
#X connect 82 0 10 0;
#X connect 83 0 82 0;
#X connect 84 0 88 0;
#X connect 85 0 89 0;
#X connect 86 0 90 0;
#X connect 87 0 127 0;
#X connect 88 0 83 1;
#X connect 89 0 83 2;
#X connect 90 0 83 3;
#X connect 91 0 73 0;
#X connect 92 0 0 0;
#X connect 93 0 56 0;
#X connect 94 0 19 0;
#X connect 95 0 84 0;
#X connect 95 0 12 0;
#X connect 95 0 67 0;
#X connect 95 0 48 0;
#X connect 95 0 30 0;
#X connect 96 0 85 0;
#X connect 97 0 13 0;
#X connect 98 0 31 0;
#X connect 99 0 68 0;
#X connect 100 0 49 0;
#X connect 101 0 130 0;
#X connect 102 0 69 0;
#X connect 103 0 14 0;
#X connect 104 0 50 0;
#X connect 105 0 32 0;
#X connect 106 0 33 0;
#X connect 107 0 101 0;
#X connect 108 0 51 0;
#X connect 109 0 87 0;
#X connect 110 0 125 0;
#X connect 111 0 110 0;
#X connect 112 0 126 0;
#X connect 113 0 112 0;
#X connect 114 0 122 0;
#X connect 115 0 114 0;
#X connect 116 0 123 0;
#X connect 117 0 116 0;
#X connect 118 0 124 0;
#X connect 119 0 118 0;
#X connect 120 0 86 0;
#X connect 121 0 15 0;
#X connect 122 0 29 5;
#X connect 123 0 66 5;
#X connect 124 0 47 5;
#X connect 125 0 83 5;
#X connect 126 0 11 5;
#X connect 127 0 83 4;
#X connect 128 0 11 4;
#X connect 129 0 29 4;
#X connect 130 0 66 4;
#X connect 131 0 47 4;
#X connect 133 0 132 0;
#X connect 135 0 134 0;
#X restore 118 157 pd 5voixfm;
#X msg 184 651 1;
#X floatatom 195 591 5 0 0 0 - - -, f 5;
#X msg 355 623 \$1 50;
#X obj 355 645 line;
#X obj 699 650 hsl 128 15 0 127 0 0 empty empty empty -2 -8 0 10 -232576
-1 -1 0 1;
#X obj 696 720 s piiitch;
#X obj 696 674 \$1 50;
#X obj 696 698 line;
#X obj 414 236 zscale 0 90 0.4 1;
#X connect 0 0 1 0;
#X connect 2 0 0 0;
#X connect 3 0 4 0;
#X connect 3 1 5 0;
#X connect 4 0 8 0;
#X connect 5 0 8 1;
#X connect 6 0 7 0;
#X connect 7 0 92 0;
#X connect 7 1 92 1;
#X connect 7 2 92 2;
#X connect 7 3 92 3;
#X connect 7 4 92 4;
#X connect 8 0 6 0;
#X connect 8 1 6 1;
#X connect 8 2 6 2;
#X connect 10 0 9 0;
#X connect 10 0 9 1;
#X connect 11 0 12 0;
#X connect 12 0 13 0;
#X connect 13 0 10 1;
#X connect 19 0 25 0;
#X connect 19 0 14 0;
#X connect 20 0 15 0;
#X connect 20 0 26 0;
#X connect 21 0 27 0;
#X connect 21 0 16 0;
#X connect 22 0 28 0;
#X connect 22 0 17 0;
#X connect 23 0 29 0;
#X connect 23 0 18 0;
#X connect 30 0 31 0;
#X connect 31 0 11 0;
#X connect 32 0 35 0;
#X connect 32 0 47 0;
#X connect 32 0 81 0;
#X connect 33 0 36 0;
#X connect 33 0 62 0;
#X connect 33 0 89 0;
#X connect 34 0 37 0;
#X connect 34 0 80 0;
#X connect 34 0 82 0;
#X connect 34 0 101 0;
#X connect 38 0 61 0;
#X connect 39 0 65 0;
#X connect 40 0 43 0;
#X connect 40 0 66 5;
#X connect 41 0 42 0;
#X connect 41 0 66 4;
#X connect 46 0 63 1;
#X connect 47 0 58 0;
#X connect 48 0 49 0;
#X connect 49 0 46 0;
#X connect 50 0 51 0;
#X connect 51 0 53 0;
#X connect 52 0 50 0;
#X connect 54 0 55 0;
#X connect 55 0 57 0;
#X connect 56 0 54 0;
#X connect 58 0 59 0;
#X connect 58 0 66 6;
#X connect 62 0 20 0;
#X connect 62 0 21 0;
#X connect 63 0 66 0;
#X connect 63 1 66 1;
#X connect 64 0 63 2;
#X connect 65 0 7 0;
#X connect 65 1 7 0;
#X connect 65 2 7 0;
#X connect 65 3 7 0;
#X connect 66 0 77 0;
#X connect 67 0 66 2;
#X connect 68 0 66 3;
#X connect 72 0 73 0;
#X connect 73 0 77 1;
#X connect 74 0 75 0;
#X connect 74 0 93 0;
#X connect 75 0 72 0;
#X connect 76 0 64 0;
#X connect 77 0 10 0;
#X connect 77 0 57 0;
#X connect 78 0 79 0;
#X connect 79 0 39 0;
#X connect 80 0 22 0;
#X connect 81 0 23 0;
#X connect 82 0 19 0;
#X connect 83 0 11 0;
#X connect 84 0 11 0;
#X connect 86 0 66 0;
#X connect 86 1 66 1;
#X connect 87 0 86 0;
#X connect 88 0 87 0;
#X connect 89 0 95 0;
#X connect 92 0 63 0;
#X connect 92 0 53 0;
#X connect 93 0 77 2;
#X connect 94 0 77 2;
#X connect 95 0 96 0;
#X connect 96 0 72 0;
#X connect 97 0 99 0;
#X connect 99 0 100 0;
#X connect 100 0 98 0;
#X connect 101 0 46 0;
#X coords 0 983 1 982 400 400 0;
