#N canvas 29 36 1462 988 10;
#X obj 17 56 tgl 20 0 empty empty DSP 17 7 0 10 -261234 -1 -1 1 1;
#X msg 17 80 \; pd dsp \$1;
#X obj 17 33 loadbang;
#X obj 129 31 notein;
#X floatatom 129 64 5 0 0 0 - - -, f 5;
#X floatatom 165 64 5 0 0 0 - - -, f 5;
#X obj 118 113 pack f f f;
#X obj 118 133 route 1 2 3 4 5;
#X floatatom 267 76 5 0 0 0 - - -, f 5;
#X floatatom 417 67 5 0 0 0 - - -, f 5;
#X floatatom 557 67 5 0 0 0 - - -, f 5;
#X floatatom 688 65 5 0 0 0 - - -, f 5;
#X obj 723 142 pack f f f f;
#X obj 543 125 t b f;
#X obj 599 126 t b f;
#X obj 655 126 t b f;
#X obj 723 161 s adsr_ctrl;
#X obj 268 32 loadbang;
#X obj 417 25 loadbang;
#X obj 557 22 loadbang;
#X obj 688 20 loadbang;
#X msg 557 44 0.3;
#X msg 688 42 500;
#X obj 129 90 poly 5;
#X obj 777 828 dac~;
#X obj 776 800 *~;
#X obj 936 728 hsl 150 20 0 1 0 1 empty empty Gain -2 -8 0 10 -261234
-1 -1 7450 0;
#X msg 883 782 \$1 50;
#X obj 883 804 line~;
#X obj 126 171 5voixfm;
#X obj 662 728 hsl 128 20 100 15000 1 0 empty empty Passe-bas -2 -8
0 10 -191407 -1 -1 5836 1;
#X obj 775 764 lop~;
#X obj 1124 640 spectre~;
#X obj 949 211 s ratio;
#X obj 935 246 s index1;
#X obj 950 313 s index2;
#X obj 935 357 s index3;
#X obj 947 400 s index4;
#X obj 1009 180 hsl 150 15 0 6 0 0 empty rat RATIO -2 -8 0 10 -204800
-1 -1 1242 1;
#X obj 1009 231 hsl 150 15 0 7 0 0 empty index11 INDEX1 -2 -8 0 10
-204786 -1 -1 745 1;
#X obj 1012 282 hsl 150 15 0 7 0 0 empty index22 INDEX2 -2 -8 0 10
-204786 -1 -1 1235 1;
#X obj 1010 335 hsl 150 15 0 7 0 0 empty index33 INDEX3 -2 -8 0 10
-204786 -1 -1 639 1;
#X obj 1011 385 hsl 150 15 0 7 0 0 empty index44 INDEX4 -2 -8 0 10
-204786 -1 -1 851 1;
#X obj 310 90 hsl 100 15 0 100 0 0 empty empty A -2 -8 0 10 -232576
-1 -1 9900 1;
#X obj 458 92 hsl 100 15 0 300 0 0 empty empty D -2 -8 0 10 -232576
-1 -1 9900 1;
#X obj 607 94 hsl 100 15 0 1.5 0 0 empty empty S -2 -8 0 10 -232576
-1 -1 1980 1;
#X obj 751 95 hsl 100 15 200 1000 0 0 empty empty R -2 -8 0 10 -232576
-1 -1 3712 1;
#X text 116 48 pitch velocity;
#X floatatom 414 91 5 0 0 0 - - -, f 5;
#X floatatom 562 94 5 0 0 0 - - -, f 5;
#X floatatom 710 95 5 0 0 0 - - -, f 5;
#X floatatom 855 96 5 0 0 0 - - -, f 5;
#X floatatom 794 733 5 0 0 0 - - -, f 5;
#X floatatom 1006 197 5 0 0 0 - - -, f 5;
#X floatatom 1006 249 5 0 0 0 - - -, f 5;
#X floatatom 1008 300 5 0 0 0 - - -, f 5;
#X floatatom 1007 352 5 0 0 0 - - -, f 5;
#X floatatom 1008 402 5 0 0 0 - - -, f 5;
#X obj 623 693 loadbang;
#X obj 838 694 loadbang;
#X msg 839 714 0.5;
#X msg 623 711 1000;
#X obj 1083 527 r roll;
#X obj 1226 117 r pitch;
#X obj 1233 253 r yaw;
#X floatatom 1155 541 5 0 0 0 - - -, f 5;
#X floatatom 1255 139 5 0 0 0 - - -, f 5;
#X floatatom 1279 271 5 0 0 0 - - -, f 5;
#X msg 125 202 1 55 40 \, 2 59 40 \, 3 62 40 \, 4 66 40;
#X msg 126 228 1 0 0 \, 2 0 0 \, 3 0 0 \, 4 0 0 \, 5 0 0;
#X msg 126 255 1 56 40 \, 2 60 40 \, 3 63 40 \, 4 66 40;
#X obj 927 32 loadbang;
#X obj 371 337 vradio 15 1 0 3 empty empty change_chord 0 -8 0 10 -262144
-1 -1 0;
#X obj 331 326 bng 15 250 50 0 empty empty empty 17 7 0 10 -262144
-1 -1;
#X msg 128 282 1 58 40 \, 2 62 40 \, 3 65 40 \, 4 69 40;
#X obj 370 201 tgl 25 0 empty empty START_STOP 17 7 0 10 -203904 -1
-1 0 1;
#X obj 371 258 counter 16;
#X obj 372 280 sel 0;
#X msg 417 47 500;
#X msg 268 54 100;
#X obj 370 232 metro 200;
#X obj 129 305 bng 15 250 50 0 empty empty empty 17 7 0 10 -262144
-1 -1;
#X obj 173 307 sel 0;
#X obj 238 309 sel 0 1 2;
#X obj 372 303 counter 3;
#X obj 1233 290 zscale 0 90 0 4;
#X obj 1228 164 zscale 0 60 0 3;
#X obj 532 223 unpackOSC;
#X obj 532 204 udpreceive 8003;
#X obj 533 243 routeOSC /gain /passbas /ratio /index1 /index2 /index3
/index4 /startstop;
#X obj 721 538 freeverb~;
#X msg 813 555 roomsize \$1;
#X msg 812 612 damping \$1;
#X msg 752 622 wet \$1;
#X msg 735 647 dry \$1;
#X msg 656 474 freeze \$1;
#X msg 656 514 bypass \$1;
#X obj 655 457 tgl 15 0 empty empty empty 17 7 0 10 -262144 -1 -1 0
1;
#X obj 656 497 tgl 15 0 empty empty empty 17 7 0 10 -262144 -1 -1 0
1;
#X obj 820 648 expr 1-$f1;
#X obj 938 526 hsl 128 15 0 1 0 0 empty empty empty -2 -8 0 10 -261682
-1 -1 0 1;
#X obj 940 597 hsl 128 15 0 1 0 0 empty empty empty -2 -8 0 10 -261682
-1 -1 0 1;
#X floatatom 937 617 5 0 0 0 - - -, f 5;
#X floatatom 935 565 5 0 0 0 - - -, f 5;
#X text 618 442 Freeze the reverb;
#X text 727 519 the dry signal pass through.;
#X text 733 506 Trun the reverb off and let;
#X text 896 647 Wet signal to dry signal ratio;
#X text 988 617 Damping level;
#X text 987 563 Roomize;
#X obj 148 611 *~;
#X obj 217 616 *~;
#X obj 248 571 pack 0 10;
#X obj 248 591 line~;
#X obj 163 565 pack 0 10;
#X obj 163 585 line~;
#X obj 197 538 expr 1-$f1;
#N canvas 782 184 727 583 Whawha_Guts 0;
#X obj 110 13 inlet~;
#X obj 163 540 outlet~;
#X obj 372 34 switch~;
#X obj 372 7 inlet;
#X obj 203 469 vcf~;
#X floatatom 297 431 5 0 0 0 - - -, f 5;
#X obj 297 298 vsl 15 128 0 20 0 0 empty empty empty 0 -9 0 10 -262144
-1 -1 3366 1;
#X obj 272 109 +~ 1;
#X obj 273 130 *~ 0.5;
#X obj 374 168 hsl 128 15 700 6000 0 0 empty empty empty -2 -8 0 10
-262144 -1 -1 0 1;
#X obj 328 238 hsl 128 15 0 700 0 0 empty empty empty -2 -8 0 10 -262144
-1 -1 0 1;
#X floatatom 325 257 6 0 0 0 - - -, f 6;
#X floatatom 326 199 6 0 0 0 - - -, f 6;
#X obj 326 180 -;
#X obj 326 158 bang;
#X obj 226 264 +~ 200;
#X obj 225 182 *~ 1500;
#X text 323 105 <-- LFO (Low-Frequency Oscillator;
#X text 507 163 <-- Maximum of the freq. range;
#X text 461 235 <-- Minimum of the freq. range;
#X text 334 388 <-- "Q";
#X text 245 468 <-- Voltage-Controlled band-pass filter;
#X obj 369 289 loadbang;
#X msg 367 314 5.3;
#X obj 217 503 *~ 3;
#X obj 272 87 osc~ 0.5;
#X connect 0 0 4 0;
#X connect 3 0 2 0;
#X connect 4 0 24 0;
#X connect 6 0 5 0;
#X connect 6 0 4 2;
#X connect 7 0 8 0;
#X connect 8 0 16 0;
#X connect 9 0 13 0;
#X connect 10 0 11 0;
#X connect 10 0 13 1;
#X connect 10 0 14 0;
#X connect 10 0 15 1;
#X connect 13 0 12 0;
#X connect 13 0 16 1;
#X connect 14 0 13 0;
#X connect 15 0 4 1;
#X connect 16 0 15 0;
#X connect 22 0 23 0;
#X connect 23 0 6 0;
#X connect 24 0 1 0;
#X connect 25 0 7 0;
#X restore 217 637 pd Whawha_Guts;
#X obj 389 413 tgl 15 0 empty empty empty 17 7 0 10 -262144 -1 -1 1
1;
#N canvas 0 22 450 300 Fuzz_Guts 0;
#X obj 110 13 inlet~;
#X obj 121 236 outlet~;
#X obj 372 34 switch~;
#X obj 372 7 inlet;
#X obj 109 71 *~ 10;
#X obj 110 113 clip~ -0.2 0.2;
#X connect 0 0 4 0;
#X connect 3 0 2 0;
#X connect 4 0 5 0;
#X connect 5 0 1 0;
#X restore 196 516 pd Fuzz_Guts;
#X obj 123 474 *~;
#X obj 192 479 *~;
#X obj 248 421 pack 0 10;
#X obj 248 441 line~;
#X obj 163 415 pack 0 10;
#X obj 163 435 line~;
#X obj 197 388 expr 1-$f1;
#X obj 124 444 *~;
#X obj 313 542 hsl 128 15 0 1 0 0 empty empty Mix_fuzz_wha -2 -8 0
10 -262130 -1 -1 5080 1;
#X obj 1084 560 zscale -60 0 0 1;
#X obj 460 502 loadbang;
#X msg 461 525 0.4;
#X obj 23 199 bng 15 250 50 0 empty empty empty 17 7 0 10 -262144 -1
-1;
#X obj 23 219 metro 100;
#X obj 23 182 loadbang;
#X obj 23 241 tabwrite~ INPUTT;
#X obj 654 788 bng 15 250 50 0 empty empty empty 17 7 0 10 -262144
-1 -1;
#X obj 654 808 metro 100;
#X obj 654 771 loadbang;
#X obj 654 830 tabwrite~ OUTPUTT;
#N canvas 0 22 450 278 (subpatch) 0;
#X array INPUTT 100 float 3;
#A 0 0 0 0 0 0 0 0 0 0 0 0 0 0 0 0 0 0 0 0 0 0 0 0 0 0 0 0 0 0 0 0
0 0 0 0 0 0 0 0 0 0 0 0 0 0 0 0 0 0 0 0 0 0 0 0 0 0 0 0 0 0 0 0 0 0
0 0 0 0 0 0 0 0 0 0 0 0 0 0 0 0 0 0 0 0 0 0 0 0 0 0 0 0 0 0 0 0 0 0
0;
#X coords 0 1 100 -1 200 140 1;
#X restore 97 694 graph;
#N canvas 0 22 450 278 (subpatch) 0;
#X array OUTPUTT 100 float 3;
#A 0 0 0 0 0 0 0 0 0 0 0 0 0 0 0 0 0 0 0 0 0 0 0 0 0 0 0 0 0 0 0 0
0 0 0 0 0 0 0 0 0 0 0 0 0 0 0 0 0 0 0 0 0 0 0 0 0 0 0 0 0 0 0 0 0 0
0 0 0 0 0 0 0 0 0 0 0 0 0 0 0 0 0 0 0 0 0 0 0 0 0 0 0 0 0 0 0 0 0 0
0;
#X coords 0 1 100 -1 200 140 1;
#X restore 338 700 graph;
#X obj 937 485 hsl 128 15 0 1 0 0 empty empty empty -2 -8 0 10 -260097
-1 -1 0 1;
#X floatatom 1067 486 5 0 0 0 - - -, f 5;
#X text 882 484 Mix Revb;
#X obj 524 361 routeOSC /mixrev /roomsiz /damping /mixfuz;
#X msg 916 65 RESET 0 \; rat 0.5 \; index11 0.35 \; index22 0.58 \;
index33 0.3 \; index44 0.4;
#X connect 0 0 1 0;
#X connect 2 0 0 0;
#X connect 3 0 4 0;
#X connect 3 1 5 0;
#X connect 4 0 23 0;
#X connect 5 0 23 1;
#X connect 6 0 7 0;
#X connect 7 0 29 0;
#X connect 7 1 29 1;
#X connect 7 2 29 2;
#X connect 7 3 29 3;
#X connect 7 4 29 3;
#X connect 8 0 43 0;
#X connect 9 0 44 0;
#X connect 10 0 45 0;
#X connect 11 0 46 0;
#X connect 12 0 16 0;
#X connect 13 0 12 0;
#X connect 13 1 12 1;
#X connect 14 0 12 0;
#X connect 14 1 12 2;
#X connect 15 0 12 0;
#X connect 15 1 12 3;
#X connect 17 0 79 0;
#X connect 18 0 78 0;
#X connect 19 0 21 0;
#X connect 20 0 22 0;
#X connect 21 0 10 0;
#X connect 22 0 11 0;
#X connect 23 0 6 0;
#X connect 23 1 6 1;
#X connect 23 2 6 2;
#X connect 25 0 24 0;
#X connect 25 0 24 1;
#X connect 26 0 27 0;
#X connect 27 0 28 0;
#X connect 28 0 25 1;
#X connect 29 0 127 0;
#X connect 29 0 135 0;
#X connect 30 0 52 0;
#X connect 31 0 25 0;
#X connect 31 0 139 0;
#X connect 38 0 53 0;
#X connect 38 0 33 0;
#X connect 39 0 34 0;
#X connect 39 0 54 0;
#X connect 40 0 55 0;
#X connect 40 0 35 0;
#X connect 41 0 56 0;
#X connect 41 0 36 0;
#X connect 42 0 57 0;
#X connect 42 0 37 0;
#X connect 43 0 48 0;
#X connect 44 0 49 0;
#X connect 45 0 50 0;
#X connect 46 0 51 0;
#X connect 48 0 12 0;
#X connect 49 0 13 0;
#X connect 50 0 14 0;
#X connect 51 0 15 0;
#X connect 52 0 31 1;
#X connect 58 0 61 0;
#X connect 59 0 60 0;
#X connect 60 0 26 0;
#X connect 61 0 30 0;
#X connect 62 0 65 0;
#X connect 62 0 129 0;
#X connect 63 0 66 0;
#X connect 63 0 86 0;
#X connect 64 0 67 0;
#X connect 64 0 85 0;
#X connect 68 0 7 0;
#X connect 69 0 7 0;
#X connect 70 0 7 0;
#X connect 71 0 146 0;
#X connect 72 0 83 0;
#X connect 74 0 7 0;
#X connect 75 0 80 0;
#X connect 75 0 82 0;
#X connect 76 0 77 0;
#X connect 77 0 84 0;
#X connect 78 0 9 0;
#X connect 79 0 8 0;
#X connect 80 0 76 0;
#X connect 81 0 69 0;
#X connect 82 0 81 0;
#X connect 83 0 73 0;
#X connect 83 0 68 0;
#X connect 83 1 73 0;
#X connect 83 1 70 0;
#X connect 83 2 73 0;
#X connect 83 2 74 0;
#X connect 83 3 73 0;
#X connect 84 0 72 0;
#X connect 85 0 39 0;
#X connect 85 0 40 0;
#X connect 85 0 41 0;
#X connect 85 0 42 0;
#X connect 86 0 38 0;
#X connect 87 0 89 0;
#X connect 87 0 145 0;
#X connect 88 0 87 0;
#X connect 89 0 26 0;
#X connect 89 1 30 0;
#X connect 89 2 38 0;
#X connect 89 3 39 0;
#X connect 89 4 40 0;
#X connect 89 5 41 0;
#X connect 89 6 42 0;
#X connect 89 7 75 0;
#X connect 90 0 31 0;
#X connect 90 1 31 0;
#X connect 91 0 90 0;
#X connect 92 0 90 0;
#X connect 93 0 90 0;
#X connect 94 0 90 0;
#X connect 95 0 90 0;
#X connect 96 0 90 0;
#X connect 97 0 95 0;
#X connect 98 0 96 0;
#X connect 99 0 94 0;
#X connect 100 0 91 0;
#X connect 100 0 103 0;
#X connect 101 0 92 0;
#X connect 101 0 102 0;
#X connect 110 0 90 0;
#X connect 111 0 117 0;
#X connect 112 0 113 0;
#X connect 113 0 111 1;
#X connect 114 0 115 0;
#X connect 115 0 110 1;
#X connect 116 0 114 0;
#X connect 117 0 90 0;
#X connect 118 0 117 1;
#X connect 118 0 112 0;
#X connect 118 0 116 0;
#X connect 118 0 126 0;
#X connect 118 0 122 0;
#X connect 118 0 119 1;
#X connect 119 0 111 0;
#X connect 120 0 110 0;
#X connect 121 0 119 0;
#X connect 122 0 123 0;
#X connect 123 0 121 1;
#X connect 124 0 125 0;
#X connect 125 0 120 1;
#X connect 126 0 124 0;
#X connect 127 0 120 0;
#X connect 127 0 121 0;
#X connect 128 0 127 1;
#X connect 129 0 142 0;
#X connect 130 0 131 0;
#X connect 131 0 128 0;
#X connect 132 0 133 0;
#X connect 133 0 135 0;
#X connect 134 0 132 0;
#X connect 136 0 137 0;
#X connect 137 0 139 0;
#X connect 138 0 136 0;
#X connect 142 0 143 0;
#X connect 142 0 93 0;
#X connect 142 0 99 0;
#X connect 145 0 142 0;
#X connect 145 1 100 0;
#X connect 145 2 101 0;
#X connect 145 3 128 0;
#X coords 0 988 1 987 400 400 0;
