#N canvas 623 169 835 769 10;
#X obj 60 316 kumquat slerp;
#X text 75 299 q1.x q1.y q1.z q1.w q2.x q2.y q2.z q2.w INTERP_FAC;
#X obj 61 269 list prepend;
#X obj 134 221 list append 0 0 0 0;
#X obj 112 98 t b l;
#X obj 112 70 inlet quatRaw: q1.x q1.y q1.z q1.w;
#X obj 61 352 outlet quatSmooth: q1.x q1.y q1.z q1.w;
#X msg 62 192 0 \, 1 \$1;
#X obj 338 68 inlet smoothingIntervalMS;
#X obj 338 44 optarg 50 \$1;
#X obj 62 223 line 0 20;
#X text 32 20 arg1 (optional) smootingIntervalMS [default 50];
#X obj 63 159 f 50;
#X obj 510 70 inlet interpolation_grainMS;
#X connect 0 0 3 1;
#X connect 0 0 6 0;
#X connect 2 0 0 0;
#X connect 3 0 2 1;
#X connect 4 0 12 0;
#X connect 4 1 3 0;
#X connect 5 0 4 0;
#X connect 7 0 10 0;
#X connect 8 0 12 1;
#X connect 9 0 12 1;
#X connect 10 0 2 0;
#X connect 12 0 7 0;
#X connect 13 0 10 2;
