#N canvas 106 391 1152 511 10;
#X obj 422 -104 inlet~;
#X obj 422 -56 rfft~;
#X obj 422 -23 *~;
#X obj 453 -23 *~;
#X obj 422 3 sqrt~;
#X obj 422 90 biquad~ 0 0 0 0 1;
#X text 486 -55 Fourier series;
#X text 486 -7 magnitude;
#X text 484 -22 calculate;
#X text 486 -104 signal to analyze;
#X text 553 84 delay two samples;
#X text 552 100 for better graphing;
#X obj 643 -28 block~ 1024 1;
#X text -20 186 This subpatch computes the spectrum of the incoming
signal with a (rectangular windowed) FFT.;
#X obj 279 6 loadbang;
#X obj 488 166 tabwrite~ \$0-spectrum;
#X obj 485 30 r \$0-gain;
#X obj 488 141 metro 50;
#X obj 215 -8 tgl 13 0 \$0-go \$0-init empty 17 7 0 10 -99865 -262144
-1 1 1;
#X obj 488 119 r \$0-go;
#X msg 279 28 1;
#X obj 279 50 s \$0-init;
#X obj 422 25 /~ 511;
#X obj 422 47 *~ 1;
#X obj 423 -79 hip~ 2;
#X obj 642 -98 loadbang;
#X obj 642 -52 s \$0-spectrum;
#X msg 641 -139 xticks 0 64 1 \, yticks 0 0.25 1 \, xlabel -0.07 0
128 256 384 512 \, ylabel -8 0 1;
#N canvas 0 0 450 300 (subpatch) 0;
#X array \$0-spectrum 512 float 0;
#X coords 0 1 511 0 257 120 2 0 0;
#X restore -29 6 graph;
#X obj -26 -8 hsl 237 13 0 4 0 0 \$0-gain \$0-init empty -2 -8 0 10
-1 -262144 -1 15500 0;
#X msg 642 -75 xticks 0 128 1 \, yticks 0 0.25 1;
#X obj 422 69 biquad~ 0.5 0 0 0.5 0;
#X connect 0 0 24 0;
#X connect 1 0 2 0;
#X connect 1 0 2 1;
#X connect 1 1 3 0;
#X connect 1 1 3 1;
#X connect 2 0 4 0;
#X connect 3 0 4 0;
#X connect 4 0 22 0;
#X connect 5 0 15 0;
#X connect 14 0 20 0;
#X connect 16 0 23 1;
#X connect 17 0 15 0;
#X connect 19 0 17 0;
#X connect 20 0 21 0;
#X connect 22 0 23 0;
#X connect 23 0 31 0;
#X connect 24 0 1 0;
#X connect 25 0 30 0;
#X connect 30 0 26 0;
#X connect 31 0 5 0;
#X coords 0 -1 1 1 257 135 2 -29 -9;
