#N canvas 3 83 1497 918 10;
#X obj 249 170 > 1;
#X obj 249 190 sel 1;
#X obj 248 214 bng 15 250 50 0 empty empty empty 17 7 0 10 -262144
-1 -1;
#X floatatom 263 116 5 0 0 0 - - -, f 5;
#X obj 266 273 spigot;
#X msg 331 195 1;
#X obj 411 168 < 1;
#X obj 410 190 sel 1;
#X obj 409 215 bng 15 250 50 0 empty empty empty 17 7 0 10 -262144
-1 -1;
#X obj 397 261 spigot;
#X msg 316 305 1;
#X msg 334 249 0;
#X obj 256 336 bng 15 250 50 0 empty empty empty 17 7 0 10 -262144
-1 -1;
#X floatatom 369 96 5 0 0 0 - - -, f 5;
#X obj 328 168 loadbang;
#X text 364 77 thresh;
#X connect 0 0 1 0;
#X connect 1 0 2 0;
#X connect 2 0 4 0;
#X connect 3 0 0 0;
#X connect 3 0 6 0;
#X connect 4 0 10 0;
#X connect 4 0 11 0;
#X connect 4 0 12 0;
#X connect 5 0 4 1;
#X connect 6 0 7 0;
#X connect 7 0 8 0;
#X connect 8 0 9 0;
#X connect 9 0 5 0;
#X connect 10 0 9 1;
#X connect 11 0 4 1;
#X connect 13 0 0 1;
#X connect 13 0 6 1;
#X connect 14 0 5 0;
